# xmcd
#
# Track frame offsets: 
#        150
#        18212
#        39105
#        66400
#        82157
#        102450
#        111835
#        124677
#        149130
#        172655
#        187210
#        204147
#
# Disc length: 3067 seconds
#
# Revision: 0
# Processed by: cddbd v1.4PL0 Copyright (c) Steve Scherf et al.
# Submitted via: ExactAudioCopy v0.90b4
#
DISCID=a60bf90c
DTITLE=Tommy Tucker - Hi Heel Sneakers
DYEAR=1992
DGENRE=Blues
TTITLE0=Hi Heel Sneakers
TTITLE1=Blues Had A Baby
TTITLE2=Come Back Baby - What'd I Say
TTITLE3=Watch Out
TTITLE4=Hard Luck Blues
TTITLE5=A Married Man's A Fool
TTITLE6=Lawdy Mis Clawdy
TTITLE7=After Hours
TTITLE8=Alimony
TTITLE9=Annie Had A Baby
TTITLE10=It Hurts Me Too
TTITLE11=Sweet Little Angel
EXTD=
EXTT0=
EXTT1=
EXTT2=
EXTT3=
EXTT4=
EXTT5=
EXTT6=
EXTT7=
EXTT8=
EXTT9=
EXTT10=
EXTT11=
PLAYORDER=
